<?xml version="1.0" standalone="no"?>
<!DOCTYPE svg PUBLIC "-//W3C//DTD SVG 20010904//EN"
 "http://www.w3.org/TR/2001/REC-SVG-20010904/DTD/svg10.dtd">
<svg version="1.0" xmlns="http://www.w3.org/2000/svg"
 width="500.000000pt" height="500.000000pt" viewBox="0 0 500.000000 500.000000"
 preserveAspectRatio="xMidYMid meet">

<g transform="translate(0.000000,500.000000) scale(0.100000,-0.100000)"
fill="#000000" stroke="none">
<path d="M3773 4742 c-41 -6 -53 -38 -53 -139 l0 -92 -1247 -4 c-1369 -4
-1291 -1 -1500 -66 -207 -64 -385 -174 -548 -336 -218 -217 -346 -471 -390
-774 -13 -90 -15 -230 -13 -929 l3 -824 24 -19 c22 -18 43 -19 335 -19 312 0
313 0 334 23 l21 23 4 759 c3 852 -1 799 80 965 34 70 57 101 136 180 106 105
183 150 328 192 l78 23 1175 0 1175 0 3 -85 c3 -114 7 -127 44 -146 l32 -17
596 299 c527 265 596 302 605 327 21 62 21 62 -590 369 -313 157 -579 288
-590 290 -11 2 -30 2 -42 0z"/>
<path d="M4309 3441 l-24 -19 -5 -764 -5 -763 -25 -80 c-40 -127 -91 -208
-194 -310 -101 -100 -181 -146 -323 -187 l-78 -23 -1175 0 -1175 0 -5 103 c-6
115 -15 132 -74 131 -20 0 -242 -106 -611 -292 -508 -256 -580 -295 -588 -319
-20 -64 -25 -61 598 -375 319 -161 590 -292 601 -292 12 -1 33 8 48 20 25 20
26 24 26 120 l0 99 1163 0 c699 0 1208 4 1277 10 341 30 624 162 861 400 189
190 314 423 376 701 14 65 17 179 20 941 l4 868 -25 25 -25 25 -309 0 c-290 0
-311 -1 -333 -19z"/>
</g>
</svg>
